<svg fill="#000000" xmlns="http://www.w3.org/2000/svg" viewBox="0 0 50 50" width="32px" height="32px">
  <path d="M 9 4 C 6.24 4 4 6.24 4 9 L 4 18 L 15 18 C 15 16.35 16.35 15 18 15 L 32 15 C 33.65 15 35 16.35 35 18 L 46 18 L 46 9 C 46 6.24 43.76 4 41 4 L 9 4 z M 4 20 L 4 30 L 15 30 L 15 20 L 4 20 z M 35 20 L 35 30 L 46 30 L 46 20 L 35 20 z M 4 32 L 4 41 C 4 43.76 6.24 46 9 46 L 41 46 C 43.76 46 46 43.76 46 41 L 46 32 L 35 32 C 35 33.65 33.65 35 32 35 L 18 35 C 16.35 35 15 33.65 15 32 L 4 32 z" />
</svg>